#!OML:ASF X:\für Bonn\!DataBase\2005_08_12_Daniel\c3d\Daniel.ASF
:FULLY-SPECIFIED
:DEGREES
216
root 20.2041 1.57226 0.149344 -1255.9 255.151 93.9372
lowerback 59.4354 0.283267 13.3164
upperback 16.0105 4.82037 0.769405
thorax -2.1734 1.35825 -6.66155
lowerneck 11.3274 16.6893 5.26047
upperneck 6.94754 22.6696 -9.26432
head 2.00737 11.2798 -3.59608
rclavicle 1.61016e-014 -1.27222e-014
rhumerus -346.214 39.3923 286.314
rradius 70.7908
rwrist -1.92801
rhand -11.3206 739.55
rfingers 7.12502
rthumb 14.7116 710.092
lclavicle 1.61016e-014 -1.27222e-014
lhumerus -425.359 -11.1261 -265.6
lradius 86.9511
lwrist 2.33434
lhand -65.2081 -752.235
lfingers 7.12502
lthumb -37.0945 -6.19467
rfemur -65.9916 -50.3528 36.9581
rtibia 112.846
rfoot 397.804 -7.10164
rtoes 17.7681
lfemur -67.7704 54.9593 -49.3589
ltibia 134.755
lfoot 7.09762 -6.33513
ltoes 3.88799
217
root 20.2427 1.56185 0.13973 -1255.95 255.484 93.4128
lowerback 59.2482 0.274058 13.2281
upperback 16.1022 4.70092 0.584962
thorax -2.07797 1.31962 -6.79011
lowerneck 11.3284 16.7582 5.11914
upperneck 7.06322 22.741 -9.10987
head 2.016 11.3054 -3.53141
rclavicle 2.38542e-015 -6.36111e-015
rhumerus -347.288 39.1869 286.283
rradius 71.0521
rwrist -2.29022
rhand -11.0381 739.687
rfingers 7.12502
rthumb 14.9837 710.249
lclavicle 2.38542e-015 -6.36111e-015
lhumerus -423.696 -11.6941 -266.334
lradius 87.774
lwrist 2.39008
lhand -64.6996 -752.911
lfingers 7.12502
lthumb -36.6134 -6.74747
rfemur -64.6239 -49.9532 36.2121
rtibia 111.932
rfoot 397.778 -6.96208
rtoes 17.9614
lfemur -66.9955 55.2061 -48.5209
ltibia 134.542
lfoot 7.35923 -6.38966
ltoes 3.979
218
root 20.2812 1.55121 0.130758 -1255.98 255.79 92.8629
lowerback 59.0697 0.23396 13.1696
upperback 16.1814 4.56744 0.399052
thorax -1.99497 1.2751 -6.92699
lowerneck 11.3068 16.8269 5.05381
upperneck 7.16474 22.798 -8.68992
head 2.24213 11.341 -3.74046
rclavicle -5.26779e-014 2.22639e-014
rhumerus -348.366 38.9616 286.135
rradius 71.2832
rwrist -2.60741
rhand -10.6509 739.902
rfingers 7.12502
rthumb 15.3568 710.492
lclavicle -5.26779e-014 2.22639e-014
lhumerus -421.894 -12.2151 -267.086
lradius 88.5498
lwrist 2.93226
lhand -63.962 -752.451
lfingers 7.12502
lthumb -35.915 -6.11383
rfemur -63.2209 -49.5669 35.4586
rtibia 110.958
rfoot 397.826 -6.66564
rtoes 17.8255
lfemur -66.0809 55.4232 -47.5513
ltibia 134.315
lfoot 7.6456 -6.48452
ltoes 3.9541
219
root 20.3192 1.54109 0.122466 -1256.12 256.079 92.4226
lowerback 58.8838 0.179746 13.1087
upperback 16.2527 4.41812 0.203283
thorax -1.9232 1.22375 -7.06825
lowerneck 11.1755 16.9219 4.82001
upperneck 7.40436 22.8975 -8.45272
head 2.29186 11.3713 -3.60564
rclavicle -8.94531e-014 -3.18055e-014
rhumerus -349.548 38.64 285.74
rradius 71.5469
rwrist -2.72177
rhand -10.1623 740.118
rfingers 7.12502
rthumb 15.8274 710.745
lclavicle -8.94531e-014 -3.18055e-014
lhumerus -419.959 -12.6661 -267.902
lradius 89.2673
lwrist 3.83247
lhand -62.9368 -750.374
lfingers 7.12502
lthumb -34.943 -3.80459
rfemur -61.8275 -49.2012 34.6922
rtibia 109.94
rfoot 397.861 -6.3228
rtoes 17.4563
lfemur -65.113 55.4834 -46.5884
ltibia 134.059
lfoot 7.98408 -6.53229
ltoes 4.13149
220
root 20.3555 1.532 0.114175 -1256.29 256.342 92.0322
lowerback 58.6562 0.138741 13.0187
upperback 16.3179 4.27203 0.0484204
thorax -1.8631 1.16901 -7.15466
lowerneck 11.0682 17.0168 4.53763
upperneck 7.60541 22.9905 -8.24484
head 2.32145 11.3983 -3.47908
rclavicle 3.06128e-014 3.81667e-014
rhumerus -350.646 38.4218 285.421
rradius 71.7813
rwrist -2.91376
rhand -9.69175 740.324
rfingers 7.12502
rthumb 16.2805 710.987
lclavicle 3.06128e-014 3.81667e-014
lhumerus -417.907 -13.0337 -268.684
lradius 89.9147
lwrist 5.03012
lhand -61.5907 -746.879
lfingers 7.12502
lthumb -33.6648 -0.021215
rfemur -60.4988 -48.816 33.964
rtibia 108.874
rfoot 397.889 -5.95367
rtoes 16.9935
lfemur -64.1915 55.3909 -45.6594
ltibia 133.804
lfoot 8.42395 -6.52545
ltoes 4.21089
